<?xml version="1.0" encoding="utf-8"?>
<!-- Generator: Adobe Illustrator 16.0.0, SVG Export Plug-In . SVG Version: 6.00 Build 0)  -->
<!DOCTYPE svg PUBLIC "-//W3C//DTD SVG 1.1//EN" "http://www.w3.org/Graphics/SVG/1.1/DTD/svg11.dtd">
<svg version="1.1" id="Layer_1" xmlns="http://www.w3.org/2000/svg" xmlns:xlink="http://www.w3.org/1999/xlink" x="0px" y="0px"
	 width="531.371px" height="493.963px" viewBox="0 0 531.371 493.963" enable-background="new 0 0 531.371 493.963"
	 xml:space="preserve">
<g>
	<g>
		<g enable-background="new    ">
			<g>
				<polygon fill="#70350A" points="16.338,240.062 17.511,240.108 10.539,268.704 9.365,268.658 				"/>
			</g>
			<g>
				<polygon fill="#70350A" points="9.365,268.658 10.539,268.704 16.95,288.888 15.777,288.842 				"/>
			</g>
			<g>
				<polygon fill="#70350A" points="20.652,214.228 21.826,214.272 17.511,240.108 16.338,240.062 				"/>
			</g>
			<g>
				<polygon fill="#70350A" points="22.359,194.783 23.533,194.828 21.826,214.272 20.652,214.228 				"/>
			</g>
			<g>
				<polygon fill="#70350A" points="15.777,288.842 16.95,288.888 19.837,309.507 18.664,309.461 				"/>
			</g>
			<g>
				<polygon fill="#70350A" points="18.664,309.461 19.837,309.507 28.099,328.438 26.925,328.393 				"/>
			</g>
			<g>
				<polygon fill="#70350A" points="32.938,177.277 34.111,177.323 23.533,194.828 22.359,194.783 				"/>
			</g>
			<g>
				<polygon fill="#70350A" points="42.505,152.527 43.679,152.573 34.111,177.323 32.938,177.277 				"/>
			</g>
			<g>
				<polygon fill="#70350A" points="26.925,328.393 28.099,328.438 38.761,350.667 37.587,350.622 				"/>
			</g>
			<g>
				<polygon fill="#70350A" points="7.05,268.654 -0.256,268.912 7.255,238.122 14.092,239.811 				"/>
			</g>
			<g>
				<polygon fill="#70350A" points="13.533,289.012 6.541,290.005 -0.256,268.912 7.05,268.654 				"/>
			</g>
			<g>
				<polygon fill="#70350A" points="55.205,130.471 56.378,130.516 43.679,152.573 42.505,152.527 				"/>
			</g>
			<g>
				<polygon fill="#70350A" points="56.255,123.206 57.428,123.251 56.378,130.516 55.205,130.471 				"/>
			</g>
			<g>
				<polygon fill="#70350A" points="37.587,350.622 38.761,350.667 48.083,373.553 46.91,373.507 				"/>
			</g>
			<g>
				<polygon fill="#70350A" points="14.092,239.811 7.255,238.122 11.448,212.876 18.391,214.047 				"/>
			</g>
			<g>
				<polygon fill="#70350A" points="18.391,214.047 11.448,212.876 13.243,192.147 20.107,194.412 				"/>
			</g>
			<g>
				<polygon fill="#70350A" points="16.411,309.622 9.905,312.488 6.541,290.005 13.533,289.012 				"/>
			</g>
			<g>
				<polygon fill="#70350A" points="21.661,241.171 23.28,241.234 16.671,268.402 15.051,268.339 				"/>
			</g>
			<g>
				<polygon fill="#70350A" points="15.047,240.013 21.661,241.171 15.051,268.339 8.075,268.608 				"/>
			</g>
			<g>
				<polygon fill="#70350A" points="8.075,268.608 15.051,268.339 20.883,286.613 14.486,288.792 				"/>
			</g>
			<g>
				<polygon fill="#70350A" points="15.051,268.339 16.671,268.402 22.502,286.677 20.883,286.613 				"/>
			</g>
			<g>
				<polygon fill="#70350A" points="24.745,328.767 18.406,331.844 9.905,312.488 16.411,309.622 				"/>
			</g>
			<g>
				<polygon fill="#70350A" points="20.107,194.412 13.243,192.147 24.742,173.09 30.777,176.778 				"/>
			</g>
			<g>
				<polygon fill="#70350A" points="46.91,373.507 48.083,373.553 58.778,395.763 57.605,395.718 				"/>
			</g>
			<g>
				<polygon fill="#70350A" points="19.362,214.177 26.046,214.784 21.661,241.171 15.047,240.013 				"/>
			</g>
			<g>
				<polygon fill="#70350A" points="26.046,214.784 27.665,214.847 23.28,241.234 21.661,241.171 				"/>
			</g>
			<g>
				<polygon fill="#70350A" points="21.069,194.732 27.604,196.983 26.046,214.784 19.362,214.177 				"/>
			</g>
			<g>
				<polygon fill="#70350A" points="27.604,196.983 29.223,197.046 27.665,214.847 26.046,214.784 				"/>
			</g>
			<g>
				<polygon fill="#70350A" points="14.486,288.792 20.883,286.613 24.077,308.396 17.374,309.411 				"/>
			</g>
			<g>
				<polygon fill="#70350A" points="20.883,286.613 22.502,286.677 25.696,308.459 24.077,308.396 				"/>
			</g>
			<g>
				<polygon fill="#70350A" points="76.984,100.971 78.157,101.016 57.428,123.251 56.255,123.206 				"/>
			</g>
			<g>
				<polygon fill="#70350A" points="30.777,176.778 24.742,173.09 33.749,149.471 40.326,152.038 				"/>
			</g>
			<g>
				<polygon fill="#70350A" points="17.374,309.411 24.077,308.396 31.75,325.483 25.635,328.342 				"/>
			</g>
			<g>
				<polygon fill="#70350A" points="24.077,308.396 25.696,308.459 33.369,325.547 31.75,325.483 				"/>
			</g>
			<g>
				<polygon fill="#70350A" points="35.406,350.979 28.892,353.665 18.406,331.844 24.745,328.767 				"/>
			</g>
			<g>
				<polygon fill="#70350A" points="31.647,177.228 37.9,179.787 27.604,196.983 21.069,194.732 				"/>
			</g>
			<g>
				<polygon fill="#70350A" points="37.9,179.787 39.52,179.851 29.223,197.046 27.604,196.983 				"/>
			</g>
			<g>
				<polygon fill="#70350A" points="13.874,239.967 15.047,240.013 8.075,268.608 6.901,268.562 				"/>
			</g>
			<g>
				<polygon fill="#70350A" points="6.901,268.562 8.075,268.608 14.486,288.792 13.313,288.746 				"/>
			</g>
			<g>
				<polygon fill="#70350A" points="41.215,152.477 46.993,156.016 37.9,179.787 31.647,177.228 				"/>
			</g>
			<g>
				<polygon fill="#70350A" points="46.993,156.016 48.612,156.079 39.52,179.851 37.9,179.787 				"/>
			</g>
			<g>
				<polygon fill="#70350A" points="40.326,152.038 33.749,149.471 46.823,126.387 53.025,129.998 				"/>
			</g>
			<g>
				<polygon fill="#70350A" points="18.188,214.131 19.362,214.177 15.047,240.013 13.874,239.967 				"/>
			</g>
			<g>
				<polygon fill="#70350A" points="57.605,395.718 58.778,395.763 78.606,425.623 77.433,425.577 				"/>
			</g>
			<g>
				<polygon fill="#70350A" points="53.025,129.998 46.823,126.387 47.379,119.503 54.039,122.7 				"/>
			</g>
			<g>
				<polygon fill="#70350A" points="44.728,373.864 38.391,376.949 28.892,353.665 35.406,350.979 				"/>
			</g>
			<g>
				<polygon fill="#70350A" points="19.896,194.688 21.069,194.732 19.362,214.177 18.188,214.131 				"/>
			</g>
			<g>
				<polygon fill="#70350A" points="13.313,288.746 14.486,288.792 17.374,309.411 16.2,309.365 				"/>
			</g>
			<g>
				<polygon fill="#70350A" points="31.75,325.483 33.369,325.547 43.928,347.546 42.309,347.483 				"/>
			</g>
			<g>
				<polygon fill="#70350A" points="25.635,328.342 31.75,325.483 42.309,347.483 36.297,350.571 				"/>
			</g>
			<g>
				<polygon fill="#70350A" points="94.273,68.627 95.447,68.672 78.157,101.016 76.984,100.971 				"/>
			</g>
			<g>
				<polygon fill="#70350A" points="16.2,309.365 17.374,309.411 25.635,328.342 24.461,328.297 				"/>
			</g>
			<g>
				<polygon fill="#70350A" points="30.474,177.181 31.647,177.228 21.069,194.732 19.896,194.688 				"/>
			</g>
			<g>
				<polygon fill="#70350A" points="53.915,130.42 60.675,131.442 46.993,156.016 41.215,152.477 				"/>
			</g>
			<g>
				<polygon fill="#70350A" points="60.675,131.442 62.294,131.506 48.612,156.079 46.993,156.016 				"/>
			</g>
			<g>
				<polygon fill="#70350A" points="54.964,123.156 61.28,126.355 60.675,131.442 53.915,130.42 				"/>
			</g>
			<g>
				<polygon fill="#70350A" points="61.28,126.355 62.899,126.418 62.294,131.506 60.675,131.442 				"/>
			</g>
			<g>
				<polygon fill="#70350A" points="42.309,347.483 43.928,347.546 53.424,370.82 51.805,370.758 				"/>
			</g>
			<g>
				<polygon fill="#70350A" points="36.297,350.571 42.309,347.483 51.805,370.758 45.62,373.457 				"/>
			</g>
			<g>
				<polygon fill="#70350A" points="55.463,396.171 49.594,400.104 38.391,376.949 44.728,373.864 				"/>
			</g>
			<g>
				<polygon fill="#70350A" points="77.433,425.577 78.606,425.623 94.123,441.706 92.949,441.661 				"/>
			</g>
			<g>
				<polygon fill="#70350A" points="40.041,152.432 41.215,152.477 31.647,177.228 30.474,177.181 				"/>
			</g>
			<g>
				<polygon fill="#70350A" points="54.039,122.7 47.379,119.503 69.751,95.412 74.938,100.277 				"/>
			</g>
			<g>
				<polygon fill="#70350A" points="24.461,328.297 25.635,328.342 36.297,350.571 35.124,350.526 				"/>
			</g>
			<g>
				<polygon fill="#70350A" points="51.805,370.758 53.424,370.82 63.954,392.626 62.334,392.563 				"/>
			</g>
			<g>
				<polygon fill="#70350A" points="45.62,373.457 51.805,370.758 62.334,392.563 56.314,395.667 				"/>
			</g>
			<g>
				<polygon fill="#70350A" points="118.126,56.878 119.3,56.924 95.447,68.672 94.273,68.627 				"/>
			</g>
			<g>
				<polygon fill="#70350A" points="52.741,130.374 53.915,130.42 41.215,152.477 40.041,152.432 				"/>
			</g>
			<g>
				<polygon fill="#70350A" points="81.614,104.284 83.233,104.348 62.899,126.418 61.28,126.355 				"/>
			</g>
			<g>
				<polygon fill="#70350A" points="75.693,100.92 81.614,104.284 61.28,126.355 54.964,123.156 				"/>
			</g>
			<g>
				<polygon fill="#70350A" points="53.791,123.11 54.964,123.156 53.915,130.42 52.741,130.374 				"/>
			</g>
			<g>
				<polygon fill="#70350A" points="35.124,350.526 36.297,350.571 45.62,373.457 44.446,373.411 				"/>
			</g>
			<g>
				<polygon fill="#70350A" points="75.387,426.162 70.297,431.084 49.594,400.104 55.463,396.171 				"/>
			</g>
			<g>
				<polygon fill="#70350A" points="74.938,100.277 69.751,95.412 87.133,62.494 92.273,67.819 				"/>
			</g>
			<g>
				<polygon fill="#70350A" points="128.587,42.011 129.76,42.056 119.3,56.924 118.126,56.878 				"/>
			</g>
			<g>
				<polygon fill="#70350A" points="92.949,441.661 94.123,441.706 118.312,456.431 117.138,456.386 				"/>
			</g>
			<g>
				<polygon fill="#70350A" points="44.446,373.411 45.62,373.457 56.314,395.667 55.141,395.622 				"/>
			</g>
			<g>
				<polygon fill="#70350A" points="56.314,395.667 62.334,392.563 81.694,421.577 76.143,425.527 				"/>
			</g>
			<g>
				<polygon fill="#70350A" points="62.334,392.563 63.954,392.626 83.313,421.64 81.694,421.577 				"/>
			</g>
			<g>
				<polygon fill="#70350A" points="92.983,68.576 97.793,73.89 81.614,104.284 75.693,100.92 				"/>
			</g>
			<g>
				<polygon fill="#70350A" points="97.793,73.89 99.413,73.953 83.233,104.348 81.614,104.284 				"/>
			</g>
			<g>
				<polygon fill="#70350A" points="90.997,442.356 87.271,448.409 70.297,431.084 75.387,426.162 				"/>
			</g>
			<g>
				<polygon fill="#70350A" points="74.52,100.875 75.693,100.92 54.964,123.156 53.791,123.11 				"/>
			</g>
			<g>
				<polygon fill="#70350A" points="117.138,456.386 118.312,456.431 131.609,468.919 130.436,468.873 				"/>
			</g>
			<g>
				<polygon fill="#70350A" points="81.694,421.577 83.313,421.64 98.057,436.717 96.438,436.653 				"/>
			</g>
			<g>
				<polygon fill="#70350A" points="76.143,425.527 81.694,421.577 96.438,436.653 91.659,441.61 				"/>
			</g>
			<g>
				<polygon fill="#70350A" points="92.273,67.819 87.133,62.494 111.461,50.503 116.187,56.032 				"/>
			</g>
			<g>
				<polygon fill="#70350A" points="153.755,40.097 154.929,40.143 129.76,42.056 128.587,42.011 				"/>
			</g>
			<g>
				<polygon fill="#70350A" points="55.141,395.622 56.314,395.667 76.143,425.527 74.969,425.481 				"/>
			</g>
			<g>
				<polygon fill="#70350A" points="91.81,68.531 92.983,68.576 75.693,100.92 74.52,100.875 				"/>
			</g>
			<g>
				<polygon fill="#70350A" points="116.836,56.828 121.232,62.346 97.793,73.89 92.983,68.576 				"/>
			</g>
			<g>
				<polygon fill="#70350A" points="121.232,62.346 122.852,62.409 99.413,73.953 97.793,73.89 				"/>
			</g>
			<g>
				<polygon fill="#70350A" points="116.187,56.032 111.461,50.503 122.891,34.255 126.763,40.998 				"/>
			</g>
			<g>
				<polygon fill="#70350A" points="115.213,457.108 110.364,462.28 87.271,448.409 90.997,442.356 				"/>
			</g>
			<g>
				<polygon fill="#70350A" points="130.436,468.873 131.609,468.919 152.245,473.253 151.072,473.207 				"/>
			</g>
			<g>
				<polygon fill="#70350A" points="127.296,41.961 130.84,48.691 121.232,62.346 116.836,56.828 				"/>
			</g>
			<g>
				<polygon fill="#70350A" points="130.84,48.691 132.459,48.754 122.852,62.409 121.232,62.346 				"/>
			</g>
			<g>
				<polygon fill="#70350A" points="74.969,425.481 76.143,425.527 91.659,441.61 90.485,441.564 				"/>
			</g>
			<g>
				<polygon fill="#70350A" points="91.659,441.61 96.438,436.653 119.232,450.287 115.848,456.336 				"/>
			</g>
			<g>
				<polygon fill="#70350A" points="96.438,436.653 98.057,436.717 120.852,450.351 119.232,450.287 				"/>
			</g>
			<g>
				<polygon fill="#70350A" points="178.559,37.771 179.731,37.817 154.929,40.143 153.755,40.097 				"/>
			</g>
			<g>
				<polygon fill="#70350A" points="128.677,469.749 125.253,476.208 110.364,462.28 115.213,457.108 				"/>
			</g>
			<g>
				<polygon fill="#70350A" points="115.663,56.783 116.836,56.828 92.983,68.576 91.81,68.531 				"/>
			</g>
			<g>
				<polygon fill="#70350A" points="115.848,456.336 119.232,450.287 132.242,462.353 129.145,468.823 				"/>
			</g>
			<g>
				<polygon fill="#70350A" points="119.232,450.287 120.852,450.351 133.861,462.415 132.242,462.353 				"/>
			</g>
			<g>
				<polygon fill="#70350A" points="151.072,473.207 152.245,473.253 173.722,478.497 172.549,478.452 				"/>
			</g>
			<g>
				<polygon fill="#70350A" points="126.763,40.998 122.891,34.255 151.714,32.065 152.379,39.052 				"/>
			</g>
			<g>
				<polygon fill="#70350A" points="152.92,47.011 154.54,47.074 132.459,48.754 130.84,48.691 				"/>
			</g>
			<g>
				<polygon fill="#70350A" points="152.465,40.047 152.92,47.011 130.84,48.691 127.296,41.961 				"/>
			</g>
			<g>
				<polygon fill="#70350A" points="126.123,41.915 127.296,41.961 116.836,56.828 115.663,56.783 				"/>
			</g>
			<g>
				<polygon fill="#70350A" points="90.485,441.564 91.659,441.61 115.848,456.336 114.674,456.29 				"/>
			</g>
			<g>
				<polygon fill="#70350A" points="200.078,31.823 201.251,31.868 179.731,37.817 178.559,37.771 				"/>
			</g>
			<g>
				<polygon fill="#70350A" points="149.572,474.132 147.795,480.933 125.253,476.208 128.677,469.749 				"/>
			</g>
			<g>
				<polygon fill="#70350A" points="129.145,468.823 132.242,462.353 151.014,466.294 149.781,473.157 				"/>
			</g>
			<g>
				<polygon fill="#70350A" points="132.242,462.353 133.861,462.415 152.633,466.357 151.014,466.294 				"/>
			</g>
			<g>
				<polygon fill="#70350A" points="114.674,456.29 115.848,456.336 129.145,468.823 127.972,468.777 				"/>
			</g>
			<g>
				<polygon fill="#70350A" points="152.379,39.052 151.714,32.065 176.311,29.735 177.096,36.738 				"/>
			</g>
			<g>
				<polygon fill="#70350A" points="172.549,478.452 173.722,478.497 201.542,483.222 200.369,483.176 				"/>
			</g>
			<g>
				<polygon fill="#70350A" points="151.292,40.001 152.465,40.047 127.296,41.961 126.123,41.915 				"/>
			</g>
			<g>
				<polygon fill="#70350A" points="177.268,37.721 178.9,44.495 152.92,47.011 152.465,40.047 				"/>
			</g>
			<g>
				<polygon fill="#70350A" points="178.9,44.495 180.52,44.558 154.54,47.074 152.92,47.011 				"/>
			</g>
			<g>
				<polygon fill="#70350A" points="200.046,30.797 201.219,30.842 224.652,35.93 223.479,35.884 				"/>
			</g>
			<g>
				<polygon fill="#70350A" points="171.059,479.386 169.755,486.288 147.795,480.933 149.572,474.132 				"/>
			</g>
			<g>
				<polygon fill="#70350A" points="149.781,473.157 151.014,466.294 172.706,471.584 171.258,478.401 				"/>
			</g>
			<g>
				<polygon fill="#70350A" points="151.014,466.294 152.633,466.357 174.325,471.646 172.706,471.584 				"/>
			</g>
			<g>
				<polygon fill="#70350A" points="127.972,468.777 129.145,468.823 149.781,473.157 148.608,473.111 				"/>
			</g>
			<g>
				<polygon fill="#70350A" points="216.88,483.312 218.054,483.357 201.433,484.219 200.259,484.173 				"/>
			</g>
			<g>
				<polygon fill="#70350A" points="177.096,36.738 176.311,29.735 198.405,23.541 198.755,30.746 				"/>
			</g>
			<g>
				<polygon fill="#70350A" points="198.808,38.965 200.427,39.028 180.52,44.558 178.9,44.495 				"/>
			</g>
			<g>
				<polygon fill="#70350A" points="198.787,31.772 198.808,38.965 178.9,44.495 177.268,37.721 				"/>
			</g>
			<g>
				<polygon fill="#70350A" points="176.095,37.676 177.268,37.721 152.465,40.047 151.292,40.001 				"/>
			</g>
			<g>
				<polygon fill="#70350A" points="217.054,482.329 218.227,482.375 229.887,485.467 228.713,485.421 				"/>
			</g>
			<g>
				<polygon fill="#70350A" points="246.697,36.947 247.87,36.993 224.496,36.911 223.322,36.866 				"/>
			</g>
			<g>
				<polygon fill="#70350A" points="236.354,482.344 237.527,482.39 230.009,486.533 228.836,486.487 				"/>
			</g>
			<g>
				<polygon fill="#70350A" points="148.608,473.111 149.781,473.157 171.258,478.401 170.085,478.356 				"/>
			</g>
			<g>
				<polygon fill="#70350A" points="198.969,484.123 199.146,491.148 169.755,486.288 171.059,479.386 				"/>
			</g>
			<g>
				<polygon fill="#70350A" points="172.706,471.584 174.325,471.646 201.679,476.237 200.06,476.175 				"/>
			</g>
			<g>
				<polygon fill="#70350A" points="171.258,478.401 172.706,471.584 200.06,476.175 199.079,483.125 				"/>
			</g>
			<g>
				<polygon fill="#70350A" points="222.032,36.815 221.834,43.846 198.808,38.965 198.787,31.772 				"/>
			</g>
			<g>
				<polygon fill="#70350A" points="198.405,23.541 200.025,23.604 225.092,29.008 223.473,28.945 				"/>
			</g>
			<g>
				<polygon fill="#70350A" points="198.755,30.746 198.405,23.541 223.473,28.945 222.188,35.834 				"/>
			</g>
			<g>
				<polygon fill="#70350A" points="197.614,31.727 198.787,31.772 177.268,37.721 176.095,37.676 				"/>
			</g>
			<g>
				<polygon fill="#70350A" points="215.59,483.261 213.663,490.108 199.146,491.148 198.969,484.123 				"/>
			</g>
			<g>
				<polygon fill="#70350A" points="213.663,490.108 215.282,490.171 200.765,491.211 199.146,491.148 				"/>
			</g>
			<g>
				<polygon fill="#70350A" points="199.079,483.125 200.06,476.175 215.263,475.2 215.763,482.279 				"/>
			</g>
			<g>
				<polygon fill="#70350A" points="273.104,31.798 274.275,31.844 247.87,36.993 246.697,36.947 				"/>
			</g>
			<g>
				<polygon fill="#70350A" points="170.085,478.356 171.258,478.401 199.079,483.125 197.905,483.08 				"/>
			</g>
			<g>
				<polygon fill="#70350A" points="215.763,482.279 215.263,475.2 226.389,477.897 227.423,485.371 				"/>
			</g>
			<g>
				<polygon fill="#70350A" points="215.263,475.2 216.883,475.263 228.007,477.961 226.389,477.897 				"/>
			</g>
			<g>
				<polygon fill="#70350A" points="222.188,35.834 223.473,28.945 245.188,28.863 245.322,35.902 				"/>
			</g>
			<g>
				<polygon fill="#70350A" points="227.545,486.438 228.259,493.9 213.663,490.108 215.59,483.261 				"/>
			</g>
			<g>
				<polygon fill="#70350A" points="245.406,36.897 246.529,43.797 221.834,43.846 222.032,36.815 				"/>
			</g>
			<g>
				<polygon fill="#70350A" points="246.529,43.797 248.148,43.86 223.453,43.909 221.834,43.846 				"/>
			</g>
			<g>
				<polygon fill="#70350A" points="270.621,475.493 271.795,475.539 237.527,482.39 236.354,482.344 				"/>
			</g>
			<g>
				<polygon fill="#70350A" points="227.423,485.371 226.389,477.897 231.355,475.086 234.805,481.326 				"/>
			</g>
			<g>
				<polygon fill="#70350A" points="197.582,30.701 198.755,30.746 222.188,35.834 221.015,35.788 				"/>
			</g>
			<g>
				<polygon fill="#70350A" points="289.457,26.02 290.631,26.066 274.275,31.844 273.104,31.798 				"/>
			</g>
			<g>
				<polygon fill="#70350A" points="235.064,482.294 236.229,489.235 228.259,493.9 227.545,486.438 				"/>
			</g>
			<g>
				<polygon fill="#70350A" points="236.229,489.235 237.848,489.298 229.878,493.963 228.259,493.9 				"/>
			</g>
			<g>
				<polygon fill="#70350A" points="214.417,483.216 215.59,483.261 198.969,484.123 197.795,484.077 				"/>
			</g>
			<g>
				<polygon fill="#70350A" points="291.9,474.378 293.074,474.424 271.795,475.539 270.621,475.493 				"/>
			</g>
			<g>
				<polygon fill="#70350A" points="245.322,35.902 245.188,28.863 270.111,23.889 271.561,30.788 				"/>
			</g>
			<g>
				<polygon fill="#70350A" points="214.59,482.233 215.763,482.279 227.423,485.371 226.25,485.325 				"/>
			</g>
			<g>
				<polygon fill="#70350A" points="244.232,36.851 245.406,36.897 222.032,36.815 220.858,36.77 				"/>
			</g>
			<g>
				<polygon fill="#70350A" points="273.896,38.372 275.518,38.435 248.148,43.86 246.529,43.797 				"/>
			</g>
			<g>
				<polygon fill="#70350A" points="271.812,31.748 273.896,38.372 246.529,43.797 245.406,36.897 				"/>
			</g>
			<g>
				<polygon fill="#70350A" points="233.891,482.248 235.064,482.294 227.545,486.438 226.372,486.392 				"/>
			</g>
			<g>
				<polygon fill="#70350A" points="319.779,24.431 320.954,24.477 290.631,26.066 289.457,26.02 				"/>
			</g>
			<g>
				<polygon fill="#70350A" points="234.805,481.326 231.355,475.086 267.73,467.556 269.212,474.448 				"/>
			</g>
			<g>
				<polygon fill="#70350A" points="307.947,460.498 309.121,460.544 293.074,474.424 291.9,474.378 				"/>
			</g>
			<g>
				<polygon fill="#70350A" points="271.561,30.788 270.111,23.889 285.623,18.289 288.048,24.977 				"/>
			</g>
			<g>
				<polygon fill="#70350A" points="269.511,482.445 271.13,482.508 237.848,489.298 236.229,489.235 				"/>
			</g>
			<g>
				<polygon fill="#70350A" points="269.331,475.443 269.511,482.445 236.229,489.235 235.064,482.294 				"/>
			</g>
			<g>
				<polygon fill="#70350A" points="288.35,33.025 289.968,33.088 275.518,38.435 273.896,38.372 				"/>
			</g>
			<g>
				<polygon fill="#70350A" points="288.167,25.971 288.35,33.025 273.896,38.372 271.812,31.748 				"/>
			</g>
			<g>
				<polygon fill="#70350A" points="270.641,31.702 271.812,31.748 245.406,36.897 244.232,36.851 				"/>
			</g>
			<g>
				<polygon fill="#70350A" points="343.003,15.879 344.177,15.924 320.954,24.477 319.779,24.431 				"/>
			</g>
			<g>
				<polygon fill="#70350A" points="326.094,455.393 327.268,455.438 327.863,457.309 326.689,457.263 				"/>
			</g>
			<g>
				<polygon fill="#70350A" points="326.689,457.263 327.863,457.309 309.121,460.544 307.947,460.498 				"/>
			</g>
			<g>
				<polygon fill="#70350A" points="269.212,474.448 267.73,467.556 287.396,466.472 290.227,473.347 				"/>
			</g>
			<g>
				<polygon fill="#70350A" points="293.113,481.19 294.732,481.254 271.13,482.508 269.511,482.445 				"/>
			</g>
			<g>
				<polygon fill="#70350A" points="290.609,474.328 293.113,481.19 269.511,482.445 269.331,475.443 				"/>
			</g>
			<g>
				<polygon fill="#70350A" points="268.157,475.397 269.331,475.443 235.064,482.294 233.891,482.248 				"/>
			</g>
			<g>
				<polygon fill="#70350A" points="286.993,25.925 288.167,25.971 271.812,31.748 270.641,31.702 				"/>
			</g>
			<g>
				<polygon fill="#70350A" points="288.048,24.977 285.623,18.289 317.852,16.314 318.361,23.388 				"/>
			</g>
			<g>
				<polygon fill="#70350A" points="290.227,473.347 287.396,466.472 303.064,452.931 306.229,459.515 				"/>
			</g>
			<g>
				<polygon fill="#70350A" points="318.49,24.381 320.68,31.03 288.35,33.025 288.167,25.971 				"/>
			</g>
			<g>
				<polygon fill="#70350A" points="320.68,31.03 322.298,31.093 289.968,33.088 288.35,33.025 				"/>
			</g>
			<g>
				<polygon fill="#70350A" points="346.098,445.198 347.271,445.243 327.268,455.438 326.094,455.393 				"/>
			</g>
			<g>
				<polygon fill="#70350A" points="365.591,15.966 366.764,16.011 344.177,15.924 343.003,15.879 				"/>
			</g>
			<g>
				<polygon fill="#70350A" points="309.494,467.021 311.113,467.084 294.732,481.254 293.113,481.19 				"/>
			</g>
			<g>
				<polygon fill="#70350A" points="306.656,460.448 309.494,467.021 293.113,481.19 290.609,474.328 				"/>
			</g>
			<g>
				<polygon fill="#70350A" points="314.969,450.872 316.588,450.935 316.713,451.328 315.094,451.265 				"/>
			</g>
			<g>
				<polygon fill="#70350A" points="289.438,474.282 290.609,474.328 269.331,475.443 268.157,475.397 				"/>
			</g>
			<g>
				<polygon fill="#70350A" points="306.229,459.515 303.064,452.931 314.969,450.872 324.113,456.424 				"/>
			</g>
			<g>
				<polygon fill="#70350A" points="318.361,23.388 317.852,16.314 339.006,8.139 341.54,14.828 				"/>
			</g>
			<g>
				<polygon fill="#70350A" points="363.755,436.263 364.928,436.309 347.271,445.243 346.098,445.198 				"/>
			</g>
			<g>
				<polygon fill="#70350A" points="341.713,15.828 341.512,22.931 320.68,31.03 318.49,24.381 				"/>
			</g>
			<g>
				<polygon fill="#70350A" points="341.512,22.931 343.131,22.994 322.298,31.093 320.68,31.03 				"/>
			</g>
			<g>
				<polygon fill="#70350A" points="317.316,24.335 318.49,24.381 288.167,25.971 286.993,25.925 				"/>
			</g>
			<g>
				<polygon fill="#70350A" points="305.482,460.402 306.656,460.448 290.609,474.328 289.438,474.282 				"/>
			</g>
			<g>
				<polygon fill="#70350A" points="325.398,457.213 334.229,462.751 309.494,467.021 306.656,460.448 				"/>
			</g>
			<g>
				<polygon fill="#70350A" points="324.803,455.343 333.001,458.896 334.229,462.751 325.398,457.213 				"/>
			</g>
			<g>
				<polygon fill="#70350A" points="334.229,462.751 335.85,462.814 311.113,467.084 309.494,467.021 				"/>
			</g>
			<g>
				<polygon fill="#70350A" points="333.001,458.896 334.62,458.96 335.85,462.814 334.229,462.751 				"/>
			</g>
			<g>
				<polygon fill="#70350A" points="393.019,8.546 394.191,8.591 366.764,16.011 365.591,15.966 				"/>
			</g>
			<g>
				<polygon fill="#70350A" points="323.609,454.837 315.094,451.265 341.143,437.986 344.373,444.252 				"/>
			</g>
			<g>
				<polygon fill="#70350A" points="383.29,426.949 384.463,426.995 364.928,436.309 363.755,436.263 				"/>
			</g>
			<g>
				<polygon fill="#70350A" points="341.54,14.828 339.006,8.139 364.052,7.846 364.181,14.912 				"/>
			</g>
			<g>
				<polygon fill="#70350A" points="347.691,451.409 349.311,451.472 334.62,458.96 333.001,458.896 				"/>
			</g>
			<g>
				<polygon fill="#70350A" points="344.807,445.147 347.691,451.409 333.001,458.896 324.803,455.343 				"/>
			</g>
			<g>
				<polygon fill="#70350A" points="365.905,22.733 367.524,22.796 343.131,22.994 341.512,22.931 				"/>
			</g>
			<g>
				<polygon fill="#70350A" points="364.3,15.915 365.905,22.733 341.512,22.931 341.713,15.828 				"/>
			</g>
			<g>
				<polygon fill="#70350A" points="340.539,15.783 341.713,15.828 318.49,24.381 317.316,24.335 				"/>
			</g>
			<g>
				<polygon fill="#70350A" points="324.227,457.167 325.398,457.213 306.656,460.448 305.482,460.402 				"/>
			</g>
			<g>
				<polygon fill="#70350A" points="323.63,455.297 324.803,455.343 325.398,457.213 324.227,457.167 				"/>
			</g>
			<g>
				<polygon fill="#70350A" points="344.373,444.252 341.143,437.986 358.828,429.04 362.041,435.316 				"/>
			</g>
			<g>
				<polygon fill="#70350A" points="393.116,7.486 394.289,7.532 416.596,18.492 415.422,18.446 				"/>
			</g>
			<g>
				<polygon fill="#70350A" points="401.198,412.818 402.371,412.864 384.463,426.995 383.29,426.949 				"/>
			</g>
			<g>
				<polygon fill="#70350A" points="365.205,442.546 366.824,442.608 349.311,451.472 347.691,451.409 				"/>
			</g>
			<g>
				<polygon fill="#70350A" points="362.464,436.213 365.205,442.546 347.691,451.409 344.807,445.147 				"/>
			</g>
			<g>
				<polygon fill="#70350A" points="343.634,445.103 344.807,445.147 324.803,455.343 323.63,455.297 				"/>
			</g>
			<g>
				<polygon fill="#70350A" points="363.127,15.87 364.3,15.915 341.713,15.828 340.539,15.783 				"/>
			</g>
			<g>
				<polygon fill="#70350A" points="390.859,15.92 392.479,15.982 367.524,22.796 365.905,22.733 				"/>
			</g>
			<g>
				<polygon fill="#70350A" points="391.728,8.495 390.859,15.92 365.905,22.733 364.3,15.915 				"/>
			</g>
			<g>
				<polygon fill="#70350A" points="364.181,14.912 364.052,7.846 392.365,0 391.826,7.436 				"/>
			</g>
			<g>
				<polygon fill="#70350A" points="362.041,435.316 358.828,429.04 378.449,419.628 381.538,426.012 				"/>
			</g>
			<g>
				<polygon fill="#70350A" points="419.298,397.216 420.472,397.262 402.371,412.864 401.198,412.818 				"/>
			</g>
			<g>
				<polygon fill="#70350A" points="415.422,18.446 416.596,18.492 438.997,23.3 437.824,23.254 				"/>
			</g>
			<g>
				<polygon fill="#70350A" points="381.999,426.898 386.062,432.458 365.205,442.546 362.464,436.213 				"/>
			</g>
			<g>
				<polygon fill="#70350A" points="386.062,432.458 387.682,432.521 366.824,442.608 365.205,442.546 				"/>
			</g>
			<g>
				<polygon fill="#70350A" points="361.291,436.167 362.464,436.213 344.807,445.147 343.634,445.103 				"/>
			</g>
			<g>
				<polygon fill="#70350A" points="433.59,387.456 434.764,387.502 420.472,397.262 419.298,397.216 				"/>
			</g>
			<g>
				<polygon fill="#70350A" points="381.538,426.012 378.449,419.628 394.923,406.451 399.293,411.988 				"/>
			</g>
			<g>
				<polygon fill="#70350A" points="413.753,19.325 412.153,26.219 390.859,15.92 391.728,8.495 				"/>
			</g>
			<g>
				<polygon fill="#70350A" points="391.826,7.436 392.365,0 416.981,12.037 414.132,18.395 				"/>
			</g>
			<g>
				<polygon fill="#70350A" points="392.365,0 393.984,0.063 418.601,12.1 416.981,12.037 				"/>
			</g>
			<g>
				<polygon fill="#70350A" points="390.555,8.45 391.728,8.495 364.3,15.915 363.127,15.87 				"/>
			</g>
			<g>
				<polygon fill="#70350A" points="399.907,412.769 404.178,418.104 386.062,432.458 381.999,426.898 				"/>
			</g>
			<g>
				<polygon fill="#70350A" points="404.178,418.104 405.797,418.167 387.682,432.521 386.062,432.458 				"/>
			</g>
			<g>
				<polygon fill="#70350A" points="437.824,23.254 438.997,23.3 461.292,34.739 460.119,34.694 				"/>
			</g>
			<g>
				<polygon fill="#70350A" points="380.826,426.854 381.999,426.898 362.464,436.213 361.291,436.167 				"/>
			</g>
			<g>
				<polygon fill="#70350A" points="399.293,411.988 394.923,406.451 412.816,391.013 417.42,396.37 				"/>
			</g>
			<g>
				<polygon fill="#70350A" points="454.312,357.978 455.484,358.023 434.764,387.502 433.59,387.456 				"/>
			</g>
			<g>
				<polygon fill="#70350A" points="436.146,24.126 432.865,30.428 412.153,26.219 413.753,19.325 				"/>
			</g>
			<g>
				<polygon fill="#70350A" points="421.669,402.981 423.288,403.044 405.797,418.167 404.178,418.104 				"/>
			</g>
			<g>
				<polygon fill="#70350A" points="418.008,397.166 421.669,402.981 404.178,418.104 399.907,412.769 				"/>
			</g>
			<g>
				<polygon fill="#70350A" points="414.132,18.395 416.981,12.037 437.807,16.29 436.533,23.204 				"/>
			</g>
			<g>
				<polygon fill="#70350A" points="416.981,12.037 418.601,12.1 439.426,16.353 437.807,16.29 				"/>
			</g>
			<g>
				<polygon fill="#70350A" points="390.652,7.39 391.826,7.436 414.132,18.395 412.959,18.35 				"/>
			</g>
			<g>
				<polygon fill="#70350A" points="398.734,412.722 399.907,412.769 381.999,426.898 380.826,426.854 				"/>
			</g>
			<g>
				<polygon fill="#70350A" points="417.42,396.37 412.816,391.013 427.641,380.713 431.688,386.628 				"/>
			</g>
			<g>
				<polygon fill="#70350A" points="460.119,34.694 461.292,34.739 482.688,55.847 481.516,55.802 				"/>
			</g>
			<g>
				<polygon fill="#70350A" points="470.85,341.171 472.023,341.217 472.05,350.072 470.876,350.026 				"/>
			</g>
			<g>
				<polygon fill="#70350A" points="470.876,350.026 472.05,350.072 455.484,358.023 454.312,357.978 				"/>
			</g>
			<g>
				<polygon fill="#70350A" points="472.145,333.506 473.317,333.552 472.023,341.217 470.85,341.171 				"/>
			</g>
			<g>
				<polygon fill="#70350A" points="432.3,387.406 437.811,391.536 421.669,402.981 418.008,397.166 				"/>
			</g>
			<g>
				<polygon fill="#70350A" points="437.811,391.536 439.43,391.6 423.288,403.044 421.669,402.981 				"/>
			</g>
			<g>
				<polygon fill="#70350A" points="458.202,35.414 453.2,40.499 432.865,30.428 436.146,24.126 				"/>
			</g>
			<g>
				<polygon fill="#70350A" points="416.834,397.12 418.008,397.166 399.907,412.769 398.734,412.722 				"/>
			</g>
			<g>
				<polygon fill="#70350A" points="481.516,55.802 482.688,55.847 497.895,76.946 496.721,76.901 				"/>
			</g>
			<g>
				<polygon fill="#70350A" points="489.146,311.359 490.32,311.404 473.317,333.552 472.145,333.506 				"/>
			</g>
			<g>
				<polygon fill="#70350A" points="431.688,386.628 427.641,380.713 447.661,351.575 452.37,357.134 				"/>
			</g>
			<g>
				<polygon fill="#70350A" points="436.533,23.204 437.807,16.29 461.797,28.312 458.828,34.643 				"/>
			</g>
			<g>
				<polygon fill="#70350A" points="437.807,16.29 439.426,16.353 463.416,28.375 461.797,28.312 				"/>
			</g>
			<g>
				<polygon fill="#70350A" points="412.959,18.35 414.132,18.395 436.533,23.204 435.36,23.158 				"/>
			</g>
			<g>
				<polygon fill="#70350A" points="495.185,283.541 496.357,283.587 490.32,311.404 489.146,311.359 				"/>
			</g>
			<g>
				<polygon fill="#70350A" points="453.021,357.928 457.397,363.476 437.811,391.536 432.3,387.406 				"/>
			</g>
			<g>
				<polygon fill="#70350A" points="457.397,363.476 459.017,363.538 439.43,391.6 437.811,391.536 				"/>
			</g>
			<g>
				<polygon fill="#70350A" points="496.721,76.901 497.895,76.946 510.763,98.549 509.59,98.502 				"/>
			</g>
			<g>
				<polygon fill="#70350A" points="431.127,387.36 432.3,387.406 418.008,397.166 416.834,397.12 				"/>
			</g>
			<g>
				<polygon fill="#70350A" points="505.262,259.439 506.436,259.485 496.357,283.587 495.185,283.541 				"/>
			</g>
			<g>
				<polygon fill="#70350A" points="479.488,56.411 473.763,60.565 453.2,40.499 458.202,35.414 				"/>
			</g>
			<g>
				<polygon fill="#70350A" points="468.6,349.345 461.56,344.904 461.531,341.048 468.591,341.036 				"/>
			</g>
			<g>
				<polygon fill="#70350A" points="452.37,357.134 447.661,351.575 461.56,344.904 468.6,349.345 				"/>
			</g>
			<g>
				<polygon fill="#70350A" points="468.591,341.036 461.531,341.048 463.288,330.125 469.932,333.045 				"/>
			</g>
			<g>
				<polygon fill="#70350A" points="511.718,239.026 512.891,239.071 506.436,259.485 505.262,259.439 				"/>
			</g>
			<g>
				<polygon fill="#70350A" points="509.59,98.502 510.763,98.549 518.267,119.708 517.094,119.662 				"/>
			</g>
			<g>
				<polygon fill="#70350A" points="435.36,23.158 436.533,23.204 458.828,34.643 457.655,34.597 				"/>
			</g>
			<g>
				<polygon fill="#70350A" points="461.797,28.312 463.416,28.375 486.479,50.758 484.86,50.695 				"/>
			</g>
			<g>
				<polygon fill="#70350A" points="458.828,34.643 461.797,28.312 484.86,50.695 480.225,55.751 				"/>
			</g>
			<g>
				<polygon fill="#70350A" points="522.301,145.206 523.475,145.252 521.709,171.116 520.536,171.071 				"/>
			</g>
			<g>
				<polygon fill="#70350A" points="517.094,119.662 518.267,119.708 523.475,145.252 522.301,145.206 				"/>
			</g>
			<g>
				<polygon fill="#70350A" points="519.49,219.866 520.663,219.911 512.891,239.071 511.718,239.026 				"/>
			</g>
			<g>
				<polygon fill="#70350A" points="520.668,200.27 521.842,200.314 520.663,219.911 519.49,219.866 				"/>
			</g>
			<g>
				<polygon fill="#70350A" points="476.191,342.296 477.811,342.359 477.925,354.462 476.306,354.399 				"/>
			</g>
			<g>
				<polygon fill="#70350A" points="469.586,349.977 476.306,354.399 457.397,363.476 453.021,357.928 				"/>
			</g>
			<g>
				<polygon fill="#70350A" points="469.56,341.121 476.191,342.296 476.306,354.399 469.586,349.977 				"/>
			</g>
			<g>
				<polygon fill="#70350A" points="476.306,354.399 477.925,354.462 459.017,363.538 457.397,363.476 				"/>
			</g>
			<g>
				<polygon fill="#70350A" points="470.854,333.456 477.167,336.366 476.191,342.296 469.56,341.121 				"/>
			</g>
			<g>
				<polygon fill="#70350A" points="477.167,336.366 478.786,336.429 477.811,342.359 476.191,342.296 				"/>
			</g>
			<g>
				<polygon fill="#70350A" points="520.536,171.071 521.709,171.116 525.062,181.979 523.891,181.934 				"/>
			</g>
			<g>
				<polygon fill="#70350A" points="523.891,181.934 525.062,181.979 521.842,200.314 520.668,200.27 				"/>
			</g>
			<g>
				<polygon fill="#70350A" points="494.607,77.408 488.565,81.047 473.763,60.565 479.488,56.411 				"/>
			</g>
			<g>
				<polygon fill="#70350A" points="451.848,357.882 453.021,357.928 432.3,387.406 431.127,387.36 				"/>
			</g>
			<g>
				<polygon fill="#70350A" points="469.932,333.045 463.288,330.125 481.239,306.455 486.95,310.878 				"/>
			</g>
			<g>
				<polygon fill="#70350A" points="486.95,310.878 481.239,306.455 486.066,281.671 492.968,283.188 				"/>
			</g>
			<g>
				<polygon fill="#70350A" points="480.225,55.751 484.86,50.695 500.812,72.692 495.431,76.85 				"/>
			</g>
			<g>
				<polygon fill="#70350A" points="484.86,50.695 486.479,50.758 502.431,72.755 500.812,72.692 				"/>
			</g>
			<g>
				<polygon fill="#70350A" points="494.571,312.843 496.19,312.905 478.786,336.429 477.167,336.366 				"/>
			</g>
			<g>
				<polygon fill="#70350A" points="487.856,311.309 494.571,312.843 477.167,336.366 470.854,333.456 				"/>
			</g>
			<g>
				<polygon fill="#70350A" points="507.417,98.877 500.757,101.268 488.565,81.047 494.607,77.408 				"/>
			</g>
			<g>
				<polygon fill="#70350A" points="492.968,283.188 486.066,281.671 496.57,256.296 503.062,259.04 				"/>
			</g>
			<g>
				<polygon fill="#70350A" points="457.655,34.597 458.828,34.643 480.225,55.751 479.051,55.706 				"/>
			</g>
			<g>
				<polygon fill="#70350A" points="468.386,341.075 469.56,341.121 469.586,349.977 468.412,349.931 				"/>
			</g>
			<g>
				<polygon fill="#70350A" points="468.412,349.931 469.586,349.977 453.021,357.928 451.848,357.882 				"/>
			</g>
			<g>
				<polygon fill="#70350A" points="469.681,333.41 470.854,333.456 469.56,341.121 468.386,341.075 				"/>
			</g>
			<g>
				<polygon fill="#70350A" points="493.894,283.491 500.077,286.231 494.571,312.843 487.856,311.309 				"/>
			</g>
			<g>
				<polygon fill="#70350A" points="500.077,286.231 501.696,286.295 496.19,312.905 494.571,312.843 				"/>
			</g>
			<g>
				<polygon fill="#70350A" points="503.062,259.04 496.57,256.296 502.797,236.484 509.507,238.626 				"/>
			</g>
			<g>
				<polygon fill="#70350A" points="514.861,119.889 507.952,121.317 500.757,101.268 507.417,98.877 				"/>
			</g>
			<g>
				<polygon fill="#70350A" points="500.812,72.692 502.431,72.755 515.658,94.852 514.039,94.789 				"/>
			</g>
			<g>
				<polygon fill="#70350A" points="495.431,76.85 500.812,72.692 514.039,94.789 508.299,98.452 				"/>
			</g>
			<g>
				<polygon fill="#70350A" points="503.972,259.39 510.354,261.523 500.077,286.231 493.894,283.491 				"/>
			</g>
			<g>
				<polygon fill="#70350A" points="510.354,261.523 511.973,261.586 501.696,286.295 500.077,286.231 				"/>
			</g>
			<g>
				<polygon fill="#70350A" points="520.023,145.227 512.94,144.74 507.952,121.317 514.861,119.889 				"/>
			</g>
			<g>
				<polygon fill="#70350A" points="518.252,171.145 511.418,173.287 512.94,144.74 520.023,145.227 				"/>
			</g>
			<g>
				<polygon fill="#70350A" points="509.507,238.626 502.797,236.484 510.662,216.803 517.264,219.513 				"/>
			</g>
			<g>
				<polygon fill="#70350A" points="517.264,219.513 510.662,216.803 511.373,199.683 518.407,200.099 				"/>
			</g>
			<g>
				<polygon fill="#70350A" points="518.407,200.099 511.373,199.683 514.369,182.419 521.595,181.954 				"/>
			</g>
			<g>
				<polygon fill="#70350A" points="521.595,181.954 514.369,182.419 511.418,173.287 518.252,171.145 				"/>
			</g>
			<g>
				<polygon fill="#70350A" points="479.051,55.706 480.225,55.751 495.431,76.85 494.257,76.805 				"/>
			</g>
			<g>
				<polygon fill="#70350A" points="510.427,238.976 516.617,241.637 510.354,261.523 503.972,259.39 				"/>
			</g>
			<g>
				<polygon fill="#70350A" points="516.617,241.637 518.236,241.7 511.973,261.586 510.354,261.523 				"/>
			</g>
			<g>
				<polygon fill="#70350A" points="486.684,311.263 487.856,311.309 470.854,333.456 469.681,333.41 				"/>
			</g>
			<g>
				<polygon fill="#70350A" points="508.299,98.452 514.039,94.789 522.117,117.213 515.803,119.612 				"/>
			</g>
			<g>
				<polygon fill="#70350A" points="514.039,94.789 515.658,94.852 523.736,117.276 522.117,117.213 				"/>
			</g>
			<g>
				<polygon fill="#70350A" points="492.721,283.445 493.894,283.491 487.856,311.309 486.684,311.263 				"/>
			</g>
			<g>
				<polygon fill="#70350A" points="522.117,117.213 523.736,117.276 529.256,143.766 527.637,143.703 				"/>
			</g>
			<g>
				<polygon fill="#70350A" points="521.011,145.156 527.637,143.703 526.057,171.498 519.245,171.021 				"/>
			</g>
			<g>
				<polygon fill="#70350A" points="515.803,119.612 522.117,117.213 527.637,143.703 521.011,145.156 				"/>
			</g>
			<g>
				<polygon fill="#70350A" points="527.637,143.703 529.256,143.766 527.676,171.562 526.057,171.498 				"/>
			</g>
			<g>
				<polygon fill="#70350A" points="518.199,219.816 524.987,220.233 516.617,241.637 510.427,238.976 				"/>
			</g>
			<g>
				<polygon fill="#70350A" points="524.987,220.233 526.606,220.296 518.236,241.7 516.617,241.637 				"/>
			</g>
			<g>
				<polygon fill="#70350A" points="519.377,200.219 525.987,201.438 524.987,220.233 518.199,219.816 				"/>
			</g>
			<g>
				<polygon fill="#70350A" points="525.987,201.438 527.606,201.501 526.606,220.296 524.987,220.233 				"/>
			</g>
			<g>
				<polygon fill="#70350A" points="529.496,181.407 531.115,181.47 527.606,201.501 525.987,201.438 				"/>
			</g>
			<g>
				<polygon fill="#70350A" points="519.245,171.021 526.057,171.498 529.496,181.407 522.6,181.883 				"/>
			</g>
			<g>
				<polygon fill="#70350A" points="522.6,181.883 529.496,181.407 525.987,201.438 519.377,200.219 				"/>
			</g>
			<g>
				<polygon fill="#70350A" points="526.057,171.498 527.676,171.562 531.115,181.47 529.496,181.407 				"/>
			</g>
			<g>
				<polygon fill="#70350A" points="494.257,76.805 495.431,76.85 508.299,98.452 507.126,98.407 				"/>
			</g>
			<g>
				<polygon fill="#70350A" points="502.798,259.344 503.972,259.39 493.894,283.491 492.721,283.445 				"/>
			</g>
			<g>
				<polygon fill="#70350A" points="509.254,238.931 510.427,238.976 503.972,259.39 502.798,259.344 				"/>
			</g>
			<g>
				<polygon fill="#70350A" points="507.126,98.407 508.299,98.452 515.803,119.612 514.63,119.567 				"/>
			</g>
			<g>
				<polygon fill="#70350A" points="514.63,119.567 515.803,119.612 521.011,145.156 519.837,145.111 				"/>
			</g>
			<g>
				<polygon fill="#70350A" points="519.837,145.111 521.011,145.156 519.245,171.021 518.072,170.975 				"/>
			</g>
			<g>
				<polygon fill="#70350A" points="517.025,219.771 518.199,219.816 510.427,238.976 509.254,238.931 				"/>
			</g>
			<g>
				<polygon fill="#70350A" points="518.204,200.173 519.377,200.219 518.199,219.816 517.025,219.771 				"/>
			</g>
			<g>
				<polygon fill="#70350A" points="521.427,181.837 522.6,181.883 519.377,200.219 518.204,200.173 				"/>
			</g>
			<g>
				<polygon fill="#70350A" points="518.072,170.975 519.245,171.021 522.6,181.883 521.427,181.837 				"/>
			</g>
			<g>
				<path fill="#70350A" d="M519.837,145.111l-1.765,25.864l3.354,10.862l-3.223,18.335l-1.18,19.599l-7.771,19.159l-6.456,20.413
					l-10.077,24.104l-6.037,27.815l-17.003,22.147l-1.295,7.665l0.026,8.855l-16.564,7.949l-20.721,29.479l-14.293,9.76
					l-18.102,15.604l-17.906,14.131l-19.535,9.312l-17.657,8.938l-20.004,10.192l0.597,1.87l-18.742,3.235l-16.047,13.88
					l-21.279,1.115l-34.266,6.851l-7.52,4.145l-11.956-3.177l-16.621,0.861l-27.91-4.737l-21.487-5.254l-20.895-4.383l-13.464-12.64
					l-24.216-14.752l-15.61-16.195l-19.923-29.99l-10.736-22.307l-9.322-22.888l-10.661-22.21l-8.334-19.146l-2.878-20.61
					l-6.483-20.355l7.042-28.844l4.299-25.764l1.716-19.635l10.67-17.634l9.55-24.74l12.699-22.04l1.013-7.298l20.899-22.423
					l17.336-32.457l23.914-11.787l10.576-15.034l25.616-1.947l24.716-2.313l21.66-5.992l23.433,5.087l23.134,0.067l26.238-5.114
					l16.486-5.811l30.312-1.589l23.18-8.56l22.641,0.084l27.646-7.477l22.307,10.959l22.401,4.808l22.295,11.438l21.396,21.108
					l15.206,21.099l12.869,21.602l7.504,21.159L519.837,145.111z M517.078,171.099l1.771-25.917l-5.161-25.34l-7.443-21.011
					l-12.811-21.469l-15.118-20.996l-21.286-20.998l-22.059-11.289l-22.394-4.801L390.553,8.449l-27.428,7.42l-22.588-0.087
					l-23.223,8.552l-30.323,1.589L270.637,31.7l-26.406,5.149l-23.375-0.082l-23.245-5.043l-21.519,5.949l-24.803,2.326
					l-25.168,1.914L115.66,56.78L91.807,68.528l-17.29,32.344l-20.729,22.235l-1.05,7.265l-12.7,22.058l-9.567,24.749
					l-10.579,17.506l-1.707,19.443l-4.314,25.836l-6.973,28.597l6.412,20.184l2.887,20.619l8.261,18.932l10.662,22.229l9.323,22.885
					l10.695,22.211l19.828,29.859l15.516,16.083l24.189,14.726l13.297,12.487l20.636,4.334l21.477,5.245l27.82,4.724l16.685-0.847
					l11.66,3.092l7.381-4.045l34.407-6.878l21.015-1.103l16.003-13.831l17.884-3.093l-0.502-1.587l20.765-10.585l17.667-8.936
					l19.498-9.306l17.754-14.022l18.127-15.618l14.268-9.741l20.686-29.495l16.229-7.789l-0.009-8.309l1.342-7.991l17.021-22.166
					l6.018-27.689l10.094-24.147l6.444-20.413l7.758-19.114l1.145-19.415l3.188-18.144L517.078,171.099"/>
			</g>
		</g>
	</g>
</g>
<path fill="none" stroke="#FFFFFF" stroke-miterlimit="10" d="M203.338,469.931c-20.803-1.178-42.036-5.478-61.083-12.72
	c-26.52-10.084-48.571-26.996-63.771-48.908c-5.079-7.321-11.616-17.208-17.14-28.749c-9.93-20.74-19.071-43.074-27.169-66.382
	c-5.367-15.441-10.758-34.11-10.054-55.479c0.521-15.794,3.833-32.433,9.844-49.451c4.028-11.403,8.564-22.196,13.649-34.114
	c6.094-14.283,12.859-29.5,22.607-44.704c1.193-1.859,2.4-3.76,3.624-5.686c9.58-15.08,20.438-32.172,33.687-44.806
	c20.948-19.974,49.554-31.43,78.484-31.43c30.773,0,61.024-0.691,91.595-3.637c11.492-1.107,21.26-3.956,32.412-6.135
	c22.56-4.41,44.766-10.804,68.03-10.804c18.02,0,35.181,2.995,49.629,8.661c35.51,13.922,62.205,42.924,73.245,79.567
	c6.042,20.055,8.237,46.688,5.871,71.247c-0.354,3.673-0.627,7.3-0.891,10.807c-0.836,11.102-1.625,21.586-4.755,33.447
	c-3.396,12.872-7.716,24.794-13.009,39.041c-2.856,7.688-6.081,15.007-9.856,22.371c-9.183,17.911-20.189,35.095-30.814,52.173
	c-4.199,6.753-7.274,12.965-12.986,18.627c-6.536,6.479-13.341,12.51-20.199,18.651c-16.367,14.654-31.87,26.92-51.189,37.386
	c-18.046,9.775-37.214,18.668-56.124,26.836c-11.271,4.868-22.834,9.867-34.426,13.938c-16.232,5.702-33.16,9.814-50.412,10.447
	C215.96,470.355,209.668,470.287,203.338,469.931z"/>
<path fill="none" stroke="#FFFFFF" stroke-miterlimit="10" d="M197.54,457.179c-5.495-0.279-11.084-0.826-16.968-1.396
	c-12.983-1.254-27.129-6.084-34.407-8.854c-24.437-9.291-44.714-24.815-58.642-44.896c-4.844-6.984-11.068-16.39-16.256-27.229
	c-9.754-20.372-18.737-42.323-26.701-65.241c-5.035-14.49-10.095-31.94-9.451-51.507c0.517-15.701,4-31.368,9.222-46.148
	c4.02-11.381,8.665-22.374,13.395-33.461c6.458-15.138,12.871-29.236,21.75-43.083c10.339-16.125,21.753-35.226,35.642-48.468
	c18.969-18.087,44.682-28.391,70.894-28.391c25.713,0,50.958,1.309,76.65-1.291c14.584-1.476,29.012-2.904,43.339-5.997
	c9.06-1.955,16.966-3.473,25.759-6.27c28.36-9.021,64.18-9.989,91.904,0.883c32.347,12.683,56.668,39.108,66.729,72.5
	c6.159,20.45,7.491,45.854,5.452,67.019c-1.44,14.974-1.485,27.931-5.33,42.502c-3.41,12.927-8.032,25.498-12.686,38.017
	c-2.688,7.238-5.768,14.228-9.334,21.184c-10.785,21.037-23.791,41.034-39.123,59.048c-13.407,15.755-29.679,34.138-47.417,45.052
	c-9.854,6.062-17.842,12.93-28.312,18.195c-21.562,10.853-44.109,19.518-66.86,27.95
	C258.585,447.755,227.927,458.734,197.54,457.179z"/>
<path fill="none" stroke="#FFFFFF" stroke-miterlimit="10" d="M197.574,448.602c-5.394,0-10.855-0.265-16.233-0.782
	c-12.051-1.164-25.43-5.741-32.332-8.366c-22.921-8.716-41.91-23.232-54.913-41.979c-4.674-6.737-10.672-15.799-15.614-26.121
	c-9.625-20.105-18.494-41.777-26.36-64.415c-4.794-13.798-9.613-30.359-9.012-48.615c0.667-20.271,8.682-39.14,15.122-54.303
	c6.31-14.86,12.714-29.815,19.038-44.451c6.141-14.215,15.759-30.637,26.424-45.127c16.711-29.575,48.206-47.929,82.324-47.937
	c11.338,0,22.755,0.537,33.795,1.055c10.856,0.51,22.082,1.038,33.042,1.038l1.812-0.005c13.854-0.074,26.821-2.705,40.55-5.491
	c2.84-0.576,5.697-1.156,8.59-1.719c7.648-1.489,15.057-3.885,22.896-6.421c11.561-3.739,23.512-7.606,36.523-8.441
	c2.253-0.145,4.54-0.292,5.786-0.449c3.702-0.466,7.531-0.702,11.383-0.702c13.017,0,27.348,2.809,40.354,7.909
	c30.048,11.782,52.642,36.333,61.989,67.359c4.648,15.443,6.124,32.112,4.505,50.962c-1.521,17.706-3.078,33.669-6.734,49.704
	c-0.79,3.465-1.659,6.896-2.5,10.215c-1.22,4.816-2.471,9.755-3.378,14.443c-1.389,7.172-3.952,12.403-6.432,17.46
	c-2.253,4.6-4.222,9.288-6.302,14.253c-3.27,7.796-6.646,15.856-11.256,23.622c-3.72,6.271-8.004,11.978-12.146,17.492
	c-3.142,4.183-6.107,8.133-8.839,12.299c-6.817,10.4-14.653,18.156-22.949,26.367c-1.038,1.027-2.083,2.062-3.132,3.107
	c-11.581,11.548-25.562,24.494-41.44,32.978c-11.046,5.899-21.279,11.158-31.289,16.078c-16.729,8.224-32.262,14.951-47.482,20.566
	c-25.702,9.479-53.791,18.272-85.013,18.413l-0.753,0.003C197.588,448.602,197.581,448.602,197.574,448.602z"/>
<path fill="none" stroke="#FFFFFF" stroke-miterlimit="10" d="M197.574,440.602c-5.141,0-10.344-0.251-15.465-0.745
	c-11.117-1.074-23.729-5.398-30.257-7.881c-21.405-8.142-39.104-21.646-51.182-39.062c-4.503-6.493-10.274-15.205-14.972-25.018
	c-9.495-19.834-18.25-41.229-26.019-63.587c-4.553-13.104-9.131-28.78-8.573-45.728c0.619-18.781,8.311-36.891,14.491-51.441
	c6.319-14.884,12.718-29.822,19.017-44.402c5.974-13.828,15.371-29.826,25.812-43.95c15.239-27.321,44.166-44.279,75.593-44.286
	c22.916,0,45.772,2.21,68.69,2.088c17.588-0.094,33.509-4.025,50.625-7.357c19.809-3.856,38.036-13.424,58.404-14.732
	c2.472-0.159,4.774-0.306,6.272-0.495c3.372-0.424,6.865-0.639,10.382-0.639c12.039,0,25.333,2.613,37.435,7.357
	c27.748,10.88,48.614,33.559,57.249,62.22c4.354,14.455,5.726,30.146,4.192,47.969c-1.493,17.402-3.021,33.072-6.562,48.611
	c-0.771,3.371-1.626,6.755-2.455,10.027c-1.24,4.897-2.523,9.961-3.478,14.889c-1.188,6.129-3.409,10.663-5.764,15.463
	c-6.007,12.256-10.137,25.319-17.251,37.312c-6.178,10.413-14.178,19.392-20.797,29.487c-7.188,10.97-15.956,19.139-25.039,28.195
	c-11.864,11.83-24.892,23.751-39.561,31.586c-10.266,5.479-20.606,10.82-31.051,15.955c-16.476,8.099-31.758,14.72-46.725,20.238
	c-25.016,9.229-52.298,17.786-82.28,17.922L197.574,440.602z"/>
<path fill="none" stroke="#FFFFFF" stroke-miterlimit="10" d="M198.286,434.6c-5.118,0.021-10.311-0.205-15.6-0.718
	c-9.076-0.877-20.153-4.267-28.702-7.517c-20.268-7.707-36.999-20.457-48.384-36.872c-4.375-6.308-9.975-14.757-14.49-24.188
	c-9.399-19.634-18.067-40.816-25.764-62.967c-4.372-12.581-8.77-27.594-8.244-43.559c0.582-17.66,8.031-35.2,14.017-49.294
	c6.305-14.849,12.698-29.775,19.002-44.368c5.854-13.549,15.083-29.22,25.36-43.075c14.139-25.632,41.111-41.535,70.539-41.541
	c13.296-0.002,26.563,2.455,39.812,2.885c23.951,0.778,47.766,0.085,71.139-4.572c22.838-4.55,43.622-16.816,67.153-18.327
	c2.549-0.164,4.952-0.317,6.639-0.53c3.125-0.393,6.365-0.592,9.635-0.592c11.309,0,23.822,2.466,35.24,6.943
	c26.022,10.204,45.596,31.477,53.694,58.365c4.472,14.848,5.283,30.344,3.962,45.725c-1.376,16.014-2.854,32.091-6.436,47.792
	c-1.909,8.375-4.348,16.699-5.976,25.107c-1.355,7.015-4.354,11.808-7.4,18.434c-2.021,4.392-3.911,8.312-5.97,12.464
	c-12.156,24.544-31.458,47.484-49.271,68.089c-7.765,8.978-14.342,19.013-24.107,26.043c-5.531,3.982-11.318,8.24-17.27,11.701
	c-10.494,6.104-21.278,11.657-32.196,17.022c-14.996,7.372-30.3,14.147-46.153,19.996
	C251.824,426.897,226.178,434.476,198.286,434.6z"/>
<path fill="none" stroke="#FFFFFF" stroke-miterlimit="10" d="M198.345,426.539c-2.11,0-4.236-0.057-6.317-0.169
	c-11.994-0.644-23.836-3.16-35.197-7.479c-18.754-7.133-34.196-18.872-44.656-33.954c-4.204-6.062-9.578-14.163-13.848-23.083
	c-9.583-20.018-18.156-41.227-25.423-62.14c-4.565-13.139-8.267-26.632-7.805-40.669c0.533-16.167,7.658-32.946,13.384-46.431
	c6.298-14.831,12.682-29.736,18.983-44.322c5.697-13.188,14.699-28.417,24.768-41.92c12.675-23.38,37.022-37.863,63.787-37.868
	c9.429,0,18.111,1.782,25.087,3.214c21.986,4.512,44.806,2.819,66.958,0.589c18.639-1.876,33.771-6.59,50.897-13.642
	c10.656-4.389,22.735-9.363,35.671-10.191c2.688-0.172,5.196-0.333,7.128-0.576c2.792-0.351,5.695-0.529,8.634-0.529
	c10.33,0,21.812,2.27,32.319,6.391c23.727,9.303,41.567,28.704,48.955,53.225c4.939,16.398,5.564,34.614,1.909,55.688
	c-0.656,3.784-1.19,7.757-1.756,11.962c-1.629,12.112-3.313,24.637-8.291,36.2c-8.287,19.25-18.869,37.895-30.383,55.031
	c-8.952,13.324-15.097,29.153-26.857,40.525c-2.631,2.542-5.328,4.812-7.937,7.01c-8.413,7.084-11.761,16.504-20.273,23.352
	c-8.155,6.562-17.918,10.862-27.304,15.319c-15.756,7.482-29.454,18.889-44.854,26.479c-19.797,9.759-38.58,19.743-60.902,23.349
	c-3.525,0.569-6.856,1.105-10.004,1.771C216.001,425.574,207.026,426.539,198.345,426.539z"/>
<path fill="none" stroke="#FFFFFF" stroke-miterlimit="10" d="M198.345,414.539c-1.894,0-3.802-0.051-5.673-0.151
	c-10.753-0.575-21.376-2.836-31.577-6.715c-16.48-6.266-29.987-16.492-39.061-29.576c-3.951-5.694-8.985-13.278-12.884-21.426
	c-5.035-10.518-8.641-21.875-12.317-32.969c-3.834-11.569-8.597-21.876-13.884-32.846c-4.84-10.041-6.219-20.398-5.856-31.416
	c0.459-13.938,7.07-29.499,12.444-42.155c6.286-14.803,12.588-29.518,18.945-44.233c5.902-13.662,14.979-28.352,23.906-40.22
	c10.471-19.961,30.934-32.322,53.634-32.326c8.208,0,15.893,1.577,22.673,2.969c8.682,1.781,18.301,2.039,27.151,2.149
	c6.549,0.082,13.262,2.335,19.756,1.685c10.935-1.094,21.5-2.832,32.398-3.941c13.725-1.398,25.342-5.642,37.881-10.513
	c12.624-4.9,25.812-11.525,39.521-12.403c2.857-0.183,5.558-0.355,7.86-0.646c2.297-0.289,4.695-0.435,7.131-0.435
	c8.869,0,18.795,1.976,27.941,5.562c20.274,7.95,35.526,24.541,41.845,45.514c4.901,16.271,4.454,33.581,1.576,50.178
	c-2.552,14.708-3.299,31.653-9.246,45.467c-6.043,14.039-13.896,27.208-21.567,40.396c-2.546,4.375-6.51,7.842-9.055,12.287
	c-3.22,5.626-6.021,11.479-9.253,17.099c-4.481,7.804-8.087,15.519-14.684,21.896c-6.188,5.979-13.506,10.869-18.978,17.574
	c-5.089,6.237-10.506,10.604-16.587,16.028c-5.813,5.188-14.455,8.63-21.4,12.108c-13.49,6.754-28.602,14.312-40.582,23.752
	c-8.958,7.059-20.934,10.825-30.971,15.854c-11.191,5.606-24.817,6.3-36.892,8.847C214.337,413.661,206.195,414.539,198.345,414.539
	z"/>
<path fill="none" stroke="#FFFFFF" stroke-miterlimit="10" d="M198.345,404.539c-1.713,0-3.442-0.046-5.138-0.137
	c-9.717-0.521-19.324-2.565-28.557-6.076c-14.584-5.545-26.479-14.511-34.398-25.929c-3.738-5.392-8.489-12.539-12.082-20.044
	c-2.503-5.229-3.284-9.969-3.854-13.428c-0.13-0.786-0.32-1.941-0.423-2.314c-1.143-3.567-2.65-7.319-4.246-11.292
	c-1.072-2.668-2.18-5.428-3.258-8.332c-2.484-6.696-6.1-13.845-9.597-20.758l-0.048-0.097c-1.603-3.171-3.223-6.376-4.788-9.621
	c-4.678-9.691-6.157-20.429-4.276-31.042l1.035-5.837c1.398-7.856,4.06-14.167,6.198-19.237c0.905-2.146,1.838-4.354,2.237-5.753
	c2.641-9.267,6.583-17.021,10.06-23.86c2.117-4.165,4.116-8.099,5.284-11.406c4.444-12.596,9.289-21.806,17.223-32.721
	c2.87-6.249,6.893-12.903,11.163-18.472c8.635-17.098,25.841-27.676,45.146-27.681c7.188,0,14.037,1.406,20.66,2.765
	c4.736,0.973,9.21,1.891,13.527,2.244c5.207,0.426,10.335,1.176,15.294,1.899c12.748,1.86,24.259,0.956,36.997,0.956
	c14.385,0,28.124-5.195,41.533-9.816c6.424-2.214,13.199-3.969,19.412-6.728c11.77-5.228,19.396-10.551,32.593-11.394
	c3.017-0.193,5.865-0.375,8.476-0.704c1.882-0.236,3.858-0.356,5.882-0.356c7.649,0,16.275,1.73,24.291,4.873
	c17.398,6.822,30.49,21.07,35.92,39.088c8.716,28.93-1.574,61.115-9.843,86.978l-1.323,4.15
	c-3.617,11.312-11.509,22.654-17.996,32.544c-1.69,2.576-3.888,5.245-5.363,7.861c-1.014,1.797-1.323,4.498-2.457,6.505
	c-5.633,9.968-12.183,18.574-19.136,27.646c-3.993,5.215-7.727,10.104-11.822,15.328c-7.4,9.438-18.914,15.78-28.172,23.193
	c-2.329,1.864-5.257,2.312-7.496,3.805c-9.869,6.57-18.118,16.049-28.736,21.416c-9.341,4.724-18.812,8.746-27.646,14.1
	c-18.449,11.175-38.704,20.771-60.134,25.291C212.952,403.733,205.504,404.539,198.345,404.539z"/>
<path fill="none" stroke="#FFFFFF" stroke-miterlimit="10" d="M193.687,395.415c-8.669-0.465-17.263-2.24-25.838-5.501
	c-12.879-4.896-23.323-12.728-30.201-22.646c-3.547-5.115-8.044-11.875-11.359-18.803c-1.95-4.071-2.583-7.918-3.092-11.007
	c-0.229-1.387-0.443-2.689-0.713-3.533c-1.26-3.936-2.826-7.835-4.484-11.963c-1.051-2.615-2.138-5.32-3.173-8.108
	c-2.66-7.171-6.393-14.552-10.003-21.688l-0.057-0.11c-1.557-3.079-3.167-6.265-4.703-9.449c-3.852-7.982-5.07-16.823-3.521-25.563
	l1.035-5.836c1.221-6.863,3.564-12.417,5.63-17.316c1.055-2.498,2.05-4.857,2.598-6.777c2.403-8.432,5.975-15.457,9.428-22.25
	c2.257-4.44,4.384-8.626,5.748-12.489c4.173-11.827,8.735-20.458,16.258-30.757c0.103-0.159,0.329-0.53,0.443-0.734
	c2.702-5.998,6.732-12.634,10.865-17.896c6.976-14.496,21.281-23.477,37.479-23.479c11.134,0,22.322,4.066,33.45,4.979
	c11.05,0.904,21.985,3.383,33.109,3.911c10.389,0.493,21.506,1.215,31.778-0.841c8.114-1.623,15.548-5.264,23.265-7.936
	c7.823-2.709,15.807-4.65,23.197-8.449c5.865-3.016,11.82-7.378,18.162-9.315c8.236-2.517,18.159-2.128,26.651-3.198
	c8.364-1.054,17.994,0.92,25.763,3.965c14.821,5.812,26,18.076,30.588,33.307c8.347,27.706-2.8,59.597-11.126,85.807
	c-4.932,15.516-17.471,24.861-25.82,37.934c-7.937,12.422-13.959,26.271-24.779,36.604c-5.848,5.584-10.073,12.715-16.071,18.204
	c-2.684,2.453-5.662,3.513-8.43,5.503c-5.49,3.95-10.106,9.789-15.354,14.158c-5.949,4.951-12.097,9.451-18.703,13.501
	c-14.544,8.907-30.179,15.875-44.729,24.769c-15.332,9.37-30.848,17.241-48.352,20.934
	C210.208,395.114,201.913,395.854,193.687,395.415z"/>
<path fill="none" stroke="#FFFFFF" stroke-miterlimit="10" d="M193.697,390.198c-7.738-0.001-14.937-1.484-24.072-4.958
	c-11.932-4.536-21.569-11.736-27.87-20.821c-3.442-4.964-7.798-11.509-10.958-18.108c-1.643-3.433-2.188-6.741-2.668-9.662
	c-0.258-1.569-0.502-3.051-0.884-4.244c-1.314-4.105-2.913-8.086-4.606-12.301c-1.039-2.586-2.113-5.263-3.125-7.987
	c-2.755-7.428-6.555-14.94-10.229-22.204c-1.565-3.095-3.183-6.293-4.717-9.476c-3.394-7.032-4.467-14.821-3.103-22.521
	c0.75-4.228,0.965-5.443,1.035-5.836c1.123-6.308,3.35-11.588,5.314-16.246c1.117-2.646,2.168-5.139,2.798-7.349
	c2.271-7.968,5.731-14.774,9.078-21.356c2.33-4.584,4.532-8.916,6.005-13.09c4.009-11.359,8.394-19.646,15.641-29.553
	c0.146-0.213,0.618-0.971,0.838-1.4c2.616-5.847,6.633-12.417,10.648-17.444c6.062-13.065,18.679-21.131,33.205-21.135
	c11.217,0.002,21.86,5.021,32.975,6.365c6.912,0.836,13.686,2.532,20.596,3.611c9.615,1.5,20.51,0.38,30.402,0.887
	c3.871,0.199,8.141,0.343,11.999,0c4.647-0.413,10.509-1.852,14.798-3.745c10.325-4.559,21.604-6.603,31.262-12.687
	c8.951-5.639,16.612-11.45,27.512-12.82c2.89-0.363,6.834-0.889,8.669-1.182c5.314-0.907,10.206-1.354,14.869-1.354
	c23.387,0,41.814,12.947,48.096,33.789c4.324,14.356,1.375,31.274-0.995,44.868c-0.27,1.545-0.533,3.06-0.781,4.536
	c-1.537,9.149-5.492,16.892-9.312,25.228c-2.81,6.124-6.572,12.229-9.977,18.232c-6.146,10.85-14.868,20.549-22.139,30.62
	c-8.206,11.365-15.446,22.136-25.015,32.518c-4.887,5.302-8.754,11.547-13.799,16.604c-5.893,5.9-12.918,10.902-19.271,16.3
	c-7.846,6.659-16.762,12.952-25.917,17.597c-9.88,5.012-18.952,11.065-28.956,15.889c-13.617,6.564-25.55,16.1-40.044,21.115
	c-5.543,1.919-10.355,5.963-16.266,6.874C207.992,388.784,200.637,390.198,193.697,390.198z"/>
<path fill="none" stroke="#FFFFFF" stroke-miterlimit="10" d="M193.698,382.198c-6.707-0.001-13.056-1.327-21.229-4.436
	c-10.416-3.962-18.764-10.15-24.14-17.902c-3.675-5.301-7.527-11.18-10.316-17.006c-1.969-4.113-1.8-8.678-3.149-12.894
	c-2.255-7.045-5.272-13.687-7.85-20.632c-4.113-11.086-10.096-21.698-15.24-32.37c-2.66-5.512-3.501-11.617-2.432-17.649
	c0,0,1.033-5.825,1.034-5.83c0.966-5.431,2.921-10.063,4.812-14.545c1.21-2.869,2.354-5.58,3.118-8.259
	c2.059-7.221,5.341-13.679,8.516-19.924c2.453-4.826,4.77-9.385,6.417-14.053c3.727-10.562,7.808-18.271,14.554-27.493
	c0.257-0.353,1.131-1.702,1.623-2.721c2.469-5.56,6.506-12.069,10.28-16.618c4.594-10.748,14.552-17.359,26.332-17.361
	c7.914,0,14.85,2.928,20.968,5.51c2.901,1.225,5.642,2.381,8.297,3.17c8.802,2.615,17.713,2.297,26.719,3.67
	c8.076,1.232,15.646,2.092,23.999,2.5c6.104,0.3,11.839-0.823,17.861-1.241c11.192-0.776,22.481-6.14,32.63-10.358
	c14.82-6.162,22.799-19.533,40.064-21.703c2.985-0.375,6.988-0.908,8.936-1.221c4.923-0.839,9.399-1.253,13.604-1.253
	c19.72,0,35.214,10.765,40.436,28.097c4.224,14.022,0.366,31.634-2.006,45.772c-1.3,7.746-4.992,14.674-9.785,20.812
	c-4.815,6.167-8.611,11.688-12.751,18.327c-2.212,3.549-5.173,6.676-7.637,9.904c-5.439,7.125-10.579,13.665-15.451,21.253
	c-5.197,8.095-10.194,15.633-15.135,23.958c-6.896,11.618-16.508,21.091-27.777,28.289c-15.323,9.786-27.841,23.459-43.906,32.436
	c-4.838,2.703-9.438,6.354-14.225,9.277c-6.18,3.774-11.827,7.188-18.369,10.562c-6.264,3.231-12.432,5.593-18.736,8.562
	c-1.562,0.734-3.186,1.535-4.856,2.358C218.392,376.371,206.57,382.198,193.698,382.198z"/>
<path fill="none" stroke="#FFFFFF" stroke-miterlimit="10" d="M193.7,374.198c-5.678-0.001-11.178-1.172-18.387-3.913
	c-8-3.041-15.476-7.87-20.409-14.983c-4.473-6.449-7.152-13.96-8.779-21.567c-1.636-7.649-6.177-14.092-9.173-21.525
	c0,0-0.104-0.257-0.116-0.289c-1.548-3.994-6.54-14.896-10.277-22.711l-7.577-15.72c-1.926-3.991-2.535-8.412-1.761-12.782
	c0,0,1.033-5.823,1.033-5.824c1.399-7.86,5.62-14.551,7.747-22.012c3.364-11.801,10.745-22.062,14.784-33.508
	c3.544-10.042,7.236-16.913,13.467-25.434c0.469-0.642,1.679-2.497,2.436-4.103c2.305-5.223,6.331-11.629,9.814-15.61
	c0.043-0.051,0.087-0.1,0.131-0.148c3.125-8.409,10.417-13.561,19.398-13.562c9.599,0,18.041,5.691,26.985,8.35
	c2.307,0.685,4.633,1.354,6.989,2.013c19.394,5.421,40.462,8.058,60.497,6.013c16.744-1.709,30.916-9.381,45.705-16.992
	c0.998-0.515,5.182-3.369,8.048-5.951c8.017-7.059,12.913-10.518,23.401-11.957c2.996-0.377,7.063-0.918,9.11-1.246
	c4.531-0.772,8.592-1.153,12.342-1.153c16.297,0,28.549,8.375,32.773,22.403c3.331,11.058,0.374,21.903-1.582,29.082
	c-0.457,1.674-0.521,3.651-0.604,6.154c-0.081,2.419-0.184,5.412-0.703,8.675c-2.448,15.314-16.223,23.19-25.25,34.397
	c-2.648,3.286-5.637,5.196-7.594,8.871c-4.986,9.361-11.346,17.812-16.709,26.923c-5.402,9.176-10.229,18.141-17.992,25.688
	c-7.364,7.161-15.123,13.891-23.236,20.188c-6.148,4.773-12.232,12.579-19.206,15.918c-5.259,2.519-7.462,4.033-11.614,8.362
	c-4.271,4.452-10.981,7.373-16.398,10.526c-6.743,3.925-13.684,7.433-20.002,11.941c-6.396,4.568-13.012,9.292-20.631,12.879
	c-1.629,0.769-3.325,1.604-5.072,2.463C215.638,368.81,204.704,374.198,193.7,374.198z"/>
<path fill="none" stroke="#FFFFFF" stroke-miterlimit="10" d="M193.701,367.198c-4.78-0.001-9.535-1.035-15.901-3.456
	c-14.796-5.778-21.334-14.434-23.375-30.893c-0.457-3.299-0.601-3.681-2.555-6.699c-2.877-4.375-6.43-11.668-8.438-16.588
	l-0.071-0.177c-1.637-4.223-6.612-15.097-10.489-23.199l-7.585-15.738c-1.284-2.661-1.69-5.608-1.174-8.521l1.033-5.82
	c1.248-7.017,3.911-12.027,7.525-17.396c1.839-2.657,3.919-6.829,4.688-9.373c1.378-4.353,3.747-10.604,5.661-14.305
	c0.568-1.098,2.41-5.97,3.772-11.002c3.18-12.572,6.281-18.776,12.747-25.503c0.477-0.546,2.341-3.274,3.521-5.804
	c2.014-4.589,5.667-10.421,8.71-13.9c0.138-0.158,0.276-0.309,0.418-0.457c0.237-0.248,0.442-0.478,0.614-0.681
	c1.877-6.41,6.717-10.179,13.228-10.181c8.061-0.003,14.472,5.452,21.615,8.344c5.694,2.305,13.423,4.481,19.637,4.481
	c7.157,0,12.669,0.934,22.679,3.841c9.682,2.812,18.938,2.351,28.93,2.809c12.342,0.565,20.99-4.651,31.418-9.865
	c3.135-1.566,6.973-3.818,8.234-4.68c2.5-1.703,7.171-4.422,10.867-6.324c1.66-0.855,6.309-4.072,9.527-6.971
	c7.211-6.351,10.985-9.034,19.67-10.227c3.008-0.377,7.129-0.927,9.267-1.27c4.188-0.713,7.882-1.064,11.233-1.064
	c13.231,0,22.735,6.35,26.071,17.422c2.751,9.135,0.219,18.433-1.634,25.222c-0.672,2.462-0.754,4.918-0.849,7.763
	c-0.078,2.328-0.166,4.967-0.619,7.803c-1.331,8.336-6.351,15.161-14.918,20.283c-0.565,0.339-1.137,0.675-1.708,1.011
	c-3.423,2.017-6.656,3.919-8.913,6.387c-1.528,1.675-2.678,4.482-3.896,7.455c-0.804,1.961-1.634,3.988-2.677,5.945
	c-4.007,7.521-10.104,17.02-16.469,26.498c-8,11.917-11.375,12.322-13.479,18c-3.803,10.225-15.735,18.438-35.297,32.945
	c-5.31,3.938-10.947,7.041-16.4,10.042c-6.102,3.355-11.93,8.691-17.278,13.134c-4.673,3.88-9.392,6.571-14.546,9.906
	c-9.75,6.308-18.523,13.873-29.123,18.86C217.389,359.957,204.949,367.198,193.701,367.198z"/>
<path fill="none" stroke="#FFFFFF" stroke-miterlimit="10" d="M193.703,360.198c-3.878-0.001-7.89-0.897-13.415-2.999
	c-12.267-4.79-17.202-11.382-18.917-25.211c-0.608-4.402-1.118-5.769-3.625-9.643c-2.622-3.984-6-10.937-7.834-15.43
	c-0.016-0.038-0.031-0.076-0.046-0.114c-1.739-4.483-6.8-15.524-10.68-23.638l-7.595-15.757c-0.638-1.323-0.843-2.814-0.587-4.262
	l1.033-5.82c1.035-5.822,3.231-9.943,6.439-14.707c2.227-3.217,4.605-8.025,5.583-11.258c1.246-3.934,3.465-9.803,5.178-13.114
	c0.96-1.856,2.969-7.417,4.327-12.447c2.876-11.387,5.455-16.631,11.021-22.424c0.989-1.042,3.388-4.604,4.855-7.775
	c1.701-3.901,5.025-9.229,7.598-12.171c0.069-0.078,0.139-0.154,0.211-0.23c0.942-0.985,1.629-1.882,1.996-2.422
	c1.692-8.609,9.312-6.785,15.291-3.756c2.939,1.488,5.644,4.131,8.699,5.284c4.32,1.632,9.389,1.46,13.856,3.341
	c2.999,1.263,4.908,1.684,10.188,1.684c6.48,0,11.324,0.832,20.727,3.563c9.811,2.849,19.889,5.235,30.076,6.214
	c14.129,1.355,23.727-7.917,35.354-13.732c3.272-1.636,7.396-4.031,9.049-5.157c2.258-1.537,6.707-4.123,10.127-5.884
	c2.354-1.213,7.455-4.794,11.008-7.991c6.775-5.969,9.215-7.57,15.938-8.494c3.018-0.377,7.188-0.935,9.421-1.291
	c3.842-0.654,7.177-0.978,10.127-0.978c7.126,0,16.272,2.158,19.371,12.442c2.104,6.986,0.171,14.551-1.686,21.359
	c-1.534,5.629-0.717,10.611-1.626,16.304c-1.126,7.052-5.672,11.836-11.598,15.379c-4.257,2.543-8.787,4.955-12.195,8.683
	c-3.645,3.991-5.075,10.126-7.582,14.832c-4.259,7.994-10.092,14.957-16.387,21.42c-10.172,10.535-11.446,12.624-14.037,19.613
	c-4.137,11.119-20.127,24.669-32.813,34.079c-7.711,5.719-16.421,9.679-24.59,14.645c-5.058,3.074-10.071,5.473-15.341,8.155
	c-4.139,2.105-7.521,6.043-11.665,8.502c-4.539,2.693-9.175,5.313-13.021,8.983c-3.769,3.596-7.897,6.636-12.617,8.867
	c-3.495,1.655-8.622,4.567-11.189,6.359c-0.028,0.02-0.056,0.038-0.084,0.058C205.893,357.425,200.416,360.198,193.703,360.198z"/>
<path fill="none" stroke="#FFFFFF" stroke-width="2.5" stroke-miterlimit="10" d="M370.087,141.469
	c-2.347,0.377-6.571,0.94-9.576,1.315c-4.789,0.657-5.915,1.222-12.206,6.76c-3.755,3.38-9.389,7.417-12.486,9.014
	c-3.1,1.595-7.321,4.036-9.391,5.444c-2.064,1.408-6.478,3.943-9.856,5.633c-3.38,1.69-9.576,5.539-13.804,8.639
	c-11.076,7.98-15.115,9.577-22.721,8.92c-4.131-0.282-8.263-1.408-12.486-3.38c-3.474-1.597-7.229-2.911-8.264-2.911
	c-1.126,0-7.042-1.501-13.238-3.286c-8.73-2.536-13.051-3.286-18.777-3.286c-5.821,0-8.732-0.47-12.956-2.254
	c-3.193-1.407-8.45-2.629-12.863-3.004c-7.042-0.563-7.605-0.846-10.892-4.226c-3.849-4.036-4.506-4.318-4.506-2.254
	c0,0.846-1.69,3.286-3.756,5.445c-1.972,2.254-4.976,6.949-6.478,10.422c-1.596,3.475-4.414,7.887-6.197,9.766
	c-4.601,4.787-6.667,8.918-9.295,19.341c-1.314,4.883-3.474,11.172-4.882,13.896s-3.474,8.074-4.695,11.924
	c-1.22,4.037-3.942,9.482-6.478,13.145c-3.099,4.601-4.601,7.793-5.352,12.019l-1.033,5.82l7.604,15.775
	c4.132,8.639,9.109,19.526,10.892,24.128c1.877,4.601,5.07,10.984,7.23,14.271c3.098,4.788,3.942,7.139,4.694,12.582
	c1.409,11.359,4.601,15.682,14.459,19.529c10.609,4.036,15.492,3.474,25.35-3.192c3.098-2.161,8.638-5.259,12.206-6.945
	c6.761-3.193,11.924-7.89,19.342-17.466c5.164-6.667,10.046-9.672,20.093-12.11c11.924-3.006,22.439-8.357,36.616-18.871
	c16.714-12.396,27.697-23.567,30.421-30.891c3.098-8.356,5.164-11.27,15.586-22.064c10.518-10.797,15.771-18.965,19.719-30.233
	c2.908-8.262,4.6-10.14,11.454-12.861c13.426-5.259,15.771-8.733,14.738-22.158c-0.562-8.169-0.47-9.201,1.975-15.397
	c2.438-6.01,2.532-7.042,1.501-10.422C389.711,141.188,383.325,139.217,370.087,141.469z"/>
<path fill="none" stroke="#FFFFFF" stroke-width="2.5" stroke-miterlimit="10" d="M357.976,155.271
	c-4.411,2.253-9.105,5.728-12.769,9.39c-5.165,5.257-7.699,6.759-23.098,14.177c-9.482,4.602-18.777,8.919-20.562,9.577
	c-1.786,0.657-5.635,2.628-8.451,4.319c-6.57,3.942-17.932,7.323-21.781,6.572c-1.598-0.282-5.539-1.879-8.826-3.476l-5.913-2.91
	l-13.99,1.597l-13.896,1.689l-5.633-2.535c-3.004-1.407-6.667-3.661-8.074-4.977c-2.16-2.065-3.099-2.347-7.229-1.971
	c-4.132,0.376-4.977,0.188-7.136-2.065c-1.314-1.315-2.347-3.287-2.347-4.319c0-1.972-3.38-5.82-4.225-4.882
	c-0.282,0.188-1.409,2.252-2.629,4.602c-1.878,3.473-3.004,4.412-7.323,6.008c-2.911,1.033-6.291,2.628-7.698,3.567
	c-3.475,2.253-6.104,7.888-7.137,15.116c-1.033,6.948-2.253,9.107-7.98,13.896c-5.633,4.694-7.792,10.422-6.478,16.899
	c0.845,4.319,0.751,4.884-1.784,8.92c-3.755,5.915-4.038,8.263-1.785,16.807c1.033,4.037,2.348,10.608,2.817,14.459
	c0.845,6.104,2.253,9.577,10.046,25.351c8.543,17.276,9.107,18.777,9.67,25.729c0.563,6.76,0.845,7.51,3.568,10.045
	c3.755,3.286,9.671,4.978,14.929,4.131c3.38-0.468,5.727-2.159,15.586-10.893c6.384-5.633,16.054-14.929,21.5-20.562l9.952-10.328
	l12.112,0.563l12.111,0.562l7.887-3.94c13.427-6.572,21.031-12.678,28.072-22.534c2.44-3.378,6.104-8.265,8.355-10.985
	c2.159-2.723,5.538-7.792,7.604-11.267c3.941-6.666,13.896-16.899,24.6-25.162c7.229-5.633,9.859-9.952,11.268-18.59
	c1.409-9.202,1.033-8.826,15.305-18.027c6.479-4.226,7.699-6.384,8.449-14.741c0.281-3.474,1.408-7.979,2.536-10.046
	c3.943-7.886,1.597-12.205-7.042-12.956C365.393,151.703,364.36,151.891,357.976,155.271z"/>
<path fill="none" stroke="#FFFFFF" stroke-width="2.5" stroke-miterlimit="10" d="M326.241,190.198
	c-5.164,3.849-12.771,7.042-25.164,10.421c-4.13,1.127-10.702,3.287-14.552,4.789c-7.23,2.911-28.355,6.667-32.957,5.916
	c-1.221-0.282-7.98-0.845-14.928-1.314c-32.581-2.44-31.359-2.159-39.904-8.355c-3.944-2.817-5.445-3.381-9.577-3.381
	c-6.103,0-9.201,2.63-10.984,9.578c-0.658,2.534-3.193,7.604-5.634,11.078c-5.07,7.417-7.699,15.21-9.201,27.322
	c-1.314,10.797,0.283,20.281,6.009,35.114c2.065,5.446,5.164,14.178,6.854,19.437c1.69,5.354,4.32,11.643,5.915,14.179
	c1.503,2.439,3.287,6.103,4.038,8.075c1.502,4.226,4.601,6.665,7.699,5.912c3.379-0.938,7.979-6.478,10.328-12.484
	c1.877-4.789,2.629-5.821,6.29-7.606c2.347-1.126,6.104-2.534,8.356-3.188c2.254-0.658,8.075-3.944,13.051-7.23
	c12.676-8.544,13.521-8.826,29.48-9.481c15.68-0.656,16.806-1.126,21.877-8.73c1.597-2.348,4.506-6.104,6.57-8.355
	c5.445-6.01,7.604-9.857,9.767-17.745c1.596-5.915,2.534-7.605,5.819-10.518c2.16-1.971,5.635-4.037,7.793-4.601
	c9.672-2.534,23.098-13.896,23.098-19.527c0-1.314,0.846-5.634,1.879-9.482c2.066-7.981,2.534-20.562,0.751-22.347
	C336.568,185.316,331.311,186.349,326.241,190.198z"/>
<path fill="none" stroke="#FFFFFF" stroke-width="2.5" stroke-miterlimit="10" d="M308.591,207.192
	c-15.682,3.661-47.228,15.961-57.18,22.345c-5.634,3.662-7.417,3.662-13.146,0.657c-3.567-1.877-5.82-2.347-11.642-2.347
	c-4.789-0.095-7.793-0.471-9.013-1.408c-1.972-1.502-7.794-3.475-15.775-5.163c-5.164-1.221-5.351-1.127-12.205,2.252
	c-3.755,1.878-7.512,3.38-8.262,3.38c-2.441,0.095-9.014,3.475-11.173,5.727c-2.629,2.911-2.535,4.883,0.939,10.893
	c2.629,4.6,3.099,6.383,3.662,15.21c0.563,8.074,1.22,11.172,3.567,16.522c1.502,3.567,3.568,10.142,4.413,14.458
	c1.126,5.446,2.629,9.577,5.07,13.615c3.286,5.353,3.756,5.729,7.417,6.009c5.258,0.376,8.263-1.782,12.299-9.106
	c3.568-6.196,7.324-8.731,14.835-9.952c2.16-0.375,6.384-2.066,9.388-3.943c3.851-2.347,7.604-3.66,12.958-4.6
	c9.952-1.784,9.952-1.784,19.717-6.667c6.196-3.098,9.2-5.258,11.266-7.98c1.598-2.063,4.979-5.444,7.604-7.321
	c5.354-4.037,10.328-11.173,11.269-16.056c1.502-7.511,6.104-11.923,14.93-13.895c7.512-1.785,13.707-5.634,17.182-10.797
	c3.756-5.729,3.852-8.169,0.094-11.269C323.331,204.844,319.479,204.657,308.591,207.192z"/>
<path fill="none" stroke="#FFFFFF" stroke-width="2.5" stroke-miterlimit="10" d="M276.197,228.505
	c-1.315,0.847-3.567,2.629-4.977,3.943c-2.16,1.971-3.943,2.535-9.859,3.098c-3.943,0.282-10.234,0.94-13.801,1.222
	c-5.259,0.562-8.264,0.281-14.271-1.314c-4.132-1.033-11.079-2.534-15.398-3.285c-4.318-0.752-9.764-2.065-12.017-2.816
	c-5.447-1.974-8.732-1.878-11.643,0.375c-1.221,1.032-4.507,2.347-7.136,2.909c-2.629,0.564-5.445,1.598-6.197,2.442
	c-2.628,2.628-1.408,11.267,3.381,23.753c1.408,3.85,3.567,9.953,4.694,13.615c2.722,9.105,6.667,15.115,10.421,15.867
	c8.168,1.596,9.389,1.03,19.811-10.422c3.005-3.286,4.79-4.32,11.643-6.388c4.413-1.405,10.704-2.909,13.803-3.378
	c9.201-1.505,16.336-3.758,18.776-6.01c1.222-1.126,2.536-3.662,2.912-5.82c0.47-2.912,1.502-4.509,4.226-6.762
	c2.535-2.065,4.035-4.131,4.787-6.947c0.563-2.16,2.441-5.541,4.227-7.418C285.116,228.976,282.676,224.093,276.197,228.505z"/>
<path fill="none" stroke="#FFFFFF" stroke-width="2.5" stroke-miterlimit="10" d="M190.664,239.021l-2.159,1.69l2.535,4.788
	c2.911,5.539,3.099,8.637,1.127,14.271c-0.751,2.157-1.408,4.977-1.408,6.194c0,5.446,4.506,9.767,10.046,9.767
	c3.756-0.094,13.426-4.693,17.182-8.263c8.261-7.698,14.646-12.395,18.684-13.804c3.851-1.219,8.544-4.316,8.544-5.633
	c0-0.188-0.375-1.408-0.938-2.723c-0.752-2.065-1.504-2.441-4.883-2.441c-2.16,0-5.728,0.658-7.888,1.503
	c-3.661,1.408-4.6,1.408-11.83-0.095c-4.412-0.845-9.858-2.723-12.581-4.318C201.179,236.673,194.138,236.204,190.664,239.021z"/>
<path fill="none" stroke="#FFFFFF" stroke-width="2.5" stroke-miterlimit="10" d="M197.519,250.569
	c-1.69,1.688-1.409,3.565,1.314,9.106c2.441,4.884,2.535,4.978,5.915,4.317c9.578-1.597,16.995-6.104,15.68-9.482
	c-0.47-1.312-1.409-1.503-6.291-0.938c-5.164,0.658-6.009,0.471-8.826-1.689C201.836,249.255,199.302,248.785,197.519,250.569z"/>
<g>
	<line fill="none" stroke="#FFFFFF" stroke-width="2" stroke-miterlimit="10" x1="161.761" y1="201.386" x2="-63.814" y2="85.678"/>
	<line fill="none" stroke="#FFFFFF" stroke-width="2" stroke-miterlimit="10" x1="-62.814" y1="85.579" x2="-143.814" y2="85.579"/>
</g>
<g>
	
		<line fill="none" stroke="#FFFFFF" stroke-width="2" stroke-miterlimit="10" x1="149.762" y1="252.386" x2="-63.814" y2="142.833"/>
	
		<line fill="none" stroke="#FFFFFF" stroke-width="2" stroke-miterlimit="10" x1="-62.814" y1="142.579" x2="-143.814" y2="142.579"/>
</g>
<g>
	
		<line fill="none" stroke="#FFFFFF" stroke-width="2" stroke-miterlimit="10" x1="192.762" y1="329.386" x2="-59.814" y2="199.828"/>
	<line fill="none" stroke="#FFFFFF" stroke-width="2" stroke-miterlimit="10" x1="-60" y1="199.579" x2="-141" y2="199.579"/>
</g>
<g>
	<line fill="none" stroke="#FFFFFF" stroke-width="2" stroke-miterlimit="10" x1="553.762" y1="84.579" x2="634.762" y2="84.579"/>
	<line fill="none" stroke="#FFFFFF" stroke-miterlimit="10" x1="555.762" y1="84.678" x2="279.578" y2="235.169"/>
	<line fill="none" stroke="#FFFFFF" stroke-miterlimit="10" x1="220.428" y1="254.511" x2="553.762" y2="84.579"/>
	<line fill="none" stroke="#FFFFFF" stroke-miterlimit="10" x1="207.096" y1="239.958" x2="553.762" y2="84.579"/>
	<line fill="none" stroke="#FFFFFF" stroke-miterlimit="10" x1="326.711" y1="219.024" x2="553.762" y2="84.579"/>
</g>
</svg>
